<?xml version="1.0" standalone="no"?>
<!DOCTYPE svg PUBLIC "-//W3C//DTD SVG 1.1//EN" "http://www.w3.org/Graphics/SVG/1.1/DTD/svg11.dtd" >
<svg xmlns="http://www.w3.org/2000/svg" xmlns:xlink="http://www.w3.org/1999/xlink" version="1.1">
<metadata>
Created by FontForge 20170731 at Thu May 14 15:19:35 1998
 By Aleksey,,,
From the WSI-Fonts Collection. Copyright (c)1993 W.S.I.  All Rights Reserved.  Redistribution strictly prohibited.
</metadata>
<defs>
<font id="JuliusBlack" horiz-adv-x="713" >
  <font-face 
    font-family="JuliusBlack"
    font-weight="900"
    font-stretch="normal"
    units-per-em="1000"
    panose-1="0 0 9 0 0 0 0 0 0 0"
    ascent="800"
    descent="-200"
    x-height="515"
    cap-height="701"
    bbox="-173 -255.029 1162 910"
    underline-thickness="0"
    underline-position="0"
    unicode-range="U+0020-F002"
  />
<missing-glyph horiz-adv-x="500" 
d="M63 0v800h375v-800h-375zM125 63h250v675h-250v-675z" />
    <glyph glyph-name=".notdef" horiz-adv-x="500" 
d="M63 0v800h375v-800h-375zM125 63h250v675h-250v-675z" />
    <glyph glyph-name=".null" horiz-adv-x="0" 
 />
    <glyph glyph-name="nonmarkingreturn" horiz-adv-x="400" 
 />
    <glyph glyph-name="space" unicode=" " horiz-adv-x="400" 
 />
    <glyph glyph-name="exclam" unicode="!" horiz-adv-x="357" 
d="M297 420l-24 -194h-191l-24 194v281h239v-281zM297 0h-239v184h239v-184z" />
    <glyph glyph-name="quotedbl" unicode="&#x22;" horiz-adv-x="352" 
d="M320 403h-113v298h113v-298zM146 403h-114v298h114v-298z" />
    <glyph glyph-name="numbersign" unicode="#" horiz-adv-x="788" 
d="M620 411h-83l-17 -121h74v-90h-85l-27 -200h-86l25 200h-88l-27 -200h-87l26 200h-80v90h91l16 121h-80v89h92l25 201h87l-26 -201h89l27 201h86l-24 -201h72v-89zM449 411h-90l-14 -121h89z" />
    <glyph glyph-name="dollar" unicode="$" horiz-adv-x="731" 
d="M689 211q0 -137 -131 -137h-152v-108h-79v108h-267l-19 130q30 -18 43 -22q20 -7 55 -7h188v78h-138q-77 0 -111 29q-37 31 -37 106v122q0 132 130 132h156v100h79v-100h258l16 -119l-84 18h-190v-69h140q143 0 143 -121v-140zM327 472v69h-67q-19 0 -19 -19v-31
q0 -19 19 -19h67zM489 194v40q0 19 -21 19h-62v-78h62q21 0 21 19z" />
    <glyph glyph-name="percent" unicode="%" horiz-adv-x="1013" 
d="M758 701l-366 -701h-140l365 701h141zM408 436q0 -53 -18 -72q-20 -22 -81 -22h-173q-58 0 -78.5 20.5t-20.5 73.5v171q0 53 19.5 73.5t79.5 20.5h173q55 0 77 -20t22 -74v-171zM264 440v161q0 25 -17 25h-49q-18 0 -18 -25v-161q0 -24 18 -24h49q17 0 17 24zM973 94
q0 -53 -18 -72q-20 -22 -81 -22h-173q-58 0 -78.5 20.5t-20.5 73.5v171q0 53 19.5 73.5t79.5 20.5h173q55 0 77 -20t22 -74v-171zM829 98v161q0 25 -17 25h-49q-18 0 -18 -25v-161q0 -24 18 -24h49q17 0 17 24z" />
    <glyph glyph-name="ampersand" unicode="&#x26;" horiz-adv-x="863" 
d="M865 131l-16 -131h-255q-58 0 -91 64q-30 -37 -50 -48q-29 -16 -83 -16h-160q-165 0 -165 159v96q0 82 27 120.5t88 38.5h63l-68 86q-32 41 -32 94q0 46 28 74q34 33 101 33h420l21 -138q-53 22 -110 22h-129q-20 0 -24 -2q-10 -3 -12 -20q0 -13 26 -47l151 -195l46 51
q18 21 14 82h106v-57q0 -51 -28 -82l-72 -81l63 -79q19 -24 38 -32q15 -6 48 -7q29 -1 55 15zM438 146l-155 193v-177q0 -27 7 -35q9 -11 39 -11h47q35 0 62 30z" />
    <glyph glyph-name="quotesingle" unicode="'" horiz-adv-x="202" 
d="M157 403h-113v298h113v-298z" />
    <glyph glyph-name="parenleft" unicode="(" horiz-adv-x="431" 
d="M400 -114h-135q-191 0 -191 186v443q0 186 191 186h135v-108h-37q-50 0 -50 -70v-459q0 -39 10.5 -53.5t39.5 -17.5h37v-107z" />
    <glyph glyph-name="parenright" unicode=")" horiz-adv-x="431" 
d="M355 72q0 -95 -45.5 -140.5t-145.5 -45.5h-133v107h35q28 0 39.5 16t11.5 55v459q0 41 -9 55.5t-42 14.5h-35v108h133q191 0 191 -186v-443z" />
    <glyph glyph-name="asterisk" unicode="*" horiz-adv-x="675" 
d="M537 545l-60 -36q-32 -19 -76 -21q29 -8 78 -30l57 -39l-56 -95l-57 38q-25 17 -50 66q15 -67 15 -90v-69h-99v65q0 32 18 94q-27 -39 -75 -74l-42 -31l-53 99l59 38q33 22 80 26q-22 7 -40 14q-45 16 -64 31l-30 23l53 93l32 -20q20 -9 76 -75q-15 60 -15 91v58h100v-64
q0 -28 -17 -85q21 24 59 59l53 36z" />
    <glyph glyph-name="plus" unicode="+" horiz-adv-x="608" 
d="M541 199h-185v-199h-106v199h-185v116h185v200h106v-200h185v-116z" />
    <glyph glyph-name="comma" unicode="," horiz-adv-x="394" 
d="M315 16l-132 -163h-86l69 147h-89v184h238v-168z" />
    <glyph glyph-name="hyphen" unicode="-" horiz-adv-x="431" 
d="M393 165h-355v184h355v-184z" />
    <glyph glyph-name="hyphen" unicode="&#x2010;" horiz-adv-x="431" 
d="M393 165h-355v184h355v-184z" />
    <glyph glyph-name="period" unicode="." horiz-adv-x="394" 
d="M315 0h-238v184h238v-184z" />
    <glyph glyph-name="slash" unicode="/" horiz-adv-x="282" 
d="M319 701l-252 -701h-106l252 701h106z" />
    <glyph glyph-name="zero" unicode="0" horiz-adv-x="800" 
d="M749 206q0 -107 -40 -156.5t-125 -49.5h-369q-82 0 -121 46q-42 50 -42 160v289q0 206 163 206h369q84 0 123 -46q42 -49 42 -160v-289zM502 161v379q0 45 -48 45h-107q-49 0 -49 -45v-379q0 -45 49 -45h107q48 0 48 45z" />
    <glyph glyph-name="one" unicode="1" horiz-adv-x="800" 
d="M553 0h-292q22 35 22 96v391h-91v124l272 90h65v-605q0 -65 24 -96z" />
    <glyph glyph-name="two" unicode="2" horiz-adv-x="800" 
d="M730 147l-23 -147h-649v312q0 82 26.5 113t97.5 35l263 15q38 2 38 39v38q0 18 -6 24q-10 9 -41 9h-282q-58 0 -101 -25l20 141h477q99 0 137 -37q35 -35 35 -123v-140q0 -77 -29 -105.5t-116 -33.5l-244 -13q-29 -2 -29 -46v-87h291q52 0 55 1q31 4 80 30z" />
    <glyph glyph-name="three" unicode="3" horiz-adv-x="800" 
d="M715 124q0 -124 -131 -124h-490l-24 150q30 -20 37 -23q26 -11 75 -11h241q26 0 35.5 7.5t9.5 35.5v96q0 28 -7.5 35.5t-37.5 7.5h-116q-55 0 -64 -1.5t-47 -17.5v154q75 -19 111 -19h116q26 0 35.5 7.5t9.5 35.5v85q0 27 -6 35t-39 8h-262q-32 0 -44.5 -4t-46.5 -23
l23 143h445q96 0 136.5 -30t40.5 -108v-114q0 -46 -31 -66q-35 -23 -120 -24q91 0 121 -25t30 -94v-116z" />
    <glyph glyph-name="four" unicode="4" horiz-adv-x="800" 
d="M794 158h-111v-62q0 -64 24 -96h-288q23 36 23 96v62h-431v172l387 370h285v-358h111v-184zM442 342v231l-252 -231h252z" />
    <glyph glyph-name="five" unicode="5" horiz-adv-x="800" 
d="M751 562q-14 7 -29 14q-32 9 -106 9h-293l-6 -138h264q85 0 122 -38t37 -122v-127q0 -83 -33 -120q-37 -40 -126 -40h-490l-21 151q42 -35 121 -35h258q28 0 34 5q10 7 10 41v123q0 28 -4 34q-8 12 -40 12h-261q-78 0 -110 -32l8 402h646z" />
    <glyph glyph-name="six" unicode="6" horiz-adv-x="800" 
d="M737 149q0 -64 -45.5 -106.5t-114.5 -42.5h-359q-69 0 -114 40t-45 109v403q0 68 44.5 108.5t114.5 40.5h486l22 -141q-52 25 -134 25h-228q-33 0 -44 -7q-15 -10 -15 -43v-133q14 28 26 37q15 14 41 14h205q71 0 115.5 -40t44.5 -109v-155zM490 155v143q0 22 -6.5 30.5
t-32.5 8.5h-105q-25 0 -33 -7t-8 -32v-143q0 -22 7 -30.5t34 -8.5h105q39 0 39 39z" />
    <glyph glyph-name="seven" unicode="7" horiz-adv-x="800" 
d="M718 583q-247 -288 -302 -583h-278q28 114 133 297q102 177 197 284h-305q-24 0 -105 -24l21 144h633z" />
    <glyph glyph-name="eight" unicode="8" horiz-adv-x="800" 
d="M740 145q0 -145 -144 -145h-399q-142 0 -142 145v94q0 125 153 125q-93 11 -124 39q-29 25 -29 88v65q0 145 143 145h398q144 0 144 -145v-65q0 -51 -16 -73q-34 -47 -139 -52q100 -3 134 -44q21 -26 21 -83v-94zM493 466v73q0 46 -37 46h-117q-38 0 -38 -46v-70
q0 -25 7.5 -35.5t30.5 -10.5h117q37 0 37 43zM493 160v101q0 46 -38 46h-116q-38 0 -38 -46v-99q0 -46 38 -46h117q37 0 37 44z" />
    <glyph glyph-name="nine" unicode="9" horiz-adv-x="800" 
d="M739 149q0 -64 -45.5 -106.5t-114.5 -42.5h-485l-23 141q42 -25 134 -25h229q33 0 45.5 8.5t12.5 40.5v134q-16 -30 -29 -41t-38 -11h-205q-70 0 -114.5 40.5t-44.5 108.5v156q0 68 44.5 108.5t114.5 40.5h359q71 0 115.5 -40t44.5 -109v-403zM492 403v142q0 22 -6.5 31
t-32.5 9h-106q-24 0 -30 -4q-10 -7 -10 -36v-142q0 -22 5 -29q8 -10 35 -10h106q39 0 39 39z" />
    <glyph glyph-name="colon" unicode=":" horiz-adv-x="394" 
d="M315 313h-238v184h238v-184zM315 0h-238v184h238v-184z" />
    <glyph glyph-name="semicolon" unicode=";" horiz-adv-x="394" 
d="M315 313h-238v184h238v-184zM315 16l-132 -163h-86l69 147h-89v184h238v-168z" />
    <glyph glyph-name="less" unicode="&#x3c;" horiz-adv-x="608" 
d="M542 -8l-478 219v92l478 219v-109l-342 -156l342 -155v-110z" />
    <glyph glyph-name="equal" unicode="=" horiz-adv-x="608" 
d="M541 312h-476v116h476v-116zM541 87h-476v116h476v-116z" />
    <glyph glyph-name="greater" unicode="&#x3e;" horiz-adv-x="608" 
d="M542 211l-478 -219v110l341 155l-341 156v109l478 -219v-92z" />
    <glyph glyph-name="question" unicode="?" 
d="M668 468q0 -64 -35 -104t-90 -40h-88q-45 0 -45 -46v-52h-247v78q0 78 28 109.5t100 31.5h81q50 0 50 46v59q0 50 -58 50h-218q-73 0 -125 -30l22 131h455q170 0 170 -152v-81zM402 0h-239v184h239v-184z" />
    <glyph glyph-name="at" unicode="@" horiz-adv-x="810" 
d="M773 387q1 -79 -69 -131q-79 -59 -223 -60l-8 37q-9 -25 -20.5 -31t-43.5 -6h-110q-50 0 -69.5 22t-19.5 79v24q0 53 19.5 77.5t69.5 24.5h142q24 0 24 20v9q0 13 -24 13h-155q-33 0 -62 -14l11 80h282q54 0 78 -27q26 -30 26 -99v-89q0 -26 14 -27q19 0 37 38.5t19 90.5
q1 95 -76 174q-83 87 -205 87q-111 0 -187 -91t-77 -232q-1 -115 71 -197q77 -89 204 -90q61 0 84 6q17 5 34 22h63q-8 -41 -54 -67q-52 -30 -135 -30q-148 0 -247 104.5t-100 272.5q-1 153 104.5 261t252.5 108q145 0 247 -103t103 -256zM465 309v48h-68q-33 0 -33 -28v-39
q0 -28 33 -28h37q20 0 25.5 7t5.5 40z" />
    <glyph glyph-name="A" unicode="A" horiz-adv-x="825" 
d="M842 0h-325q16 17 16 47q0 24 -11 52l-35 89h-284l-44 -96q-8 -18 -8 -39q0 -28 13 -53h-182q35 55 39 61q19 32 34 66l236 534l-29 40h293l229 -605q20 -54 58 -96zM445 304l-92 237l-100 -237h192z" />
    <glyph glyph-name="B" unicode="B" horiz-adv-x="769" 
d="M731 145q0 -75 -35 -108q-39 -37 -133 -37h-528q14 28 17 55q2 14 2 65v460q0 61 -2 73.5t-17 47.5h528q91 0 131 -37q37 -34 37 -108v-80q0 -60 -32.5 -84.5t-107.5 -26.5q84 -14 109 -29q31 -21 31 -75v-116zM485 460v85q0 24 -6 32t-34 8h-144v-165h144q40 0 40 40z
M485 155v110q0 23 -5 29q-7 10 -35 10h-144v-188h144q23 0 30 6.5t10 32.5z" />
    <glyph glyph-name="C" unicode="C" horiz-adv-x="639" 
d="M627 142l-21 -142h-398q-82 0 -121 46q-42 50 -42 160v289q0 206 163 206h388l19 -135q-77 19 -99 19h-176q-49 0 -49 -45v-379q0 -45 49 -45h138q55 0 76 3q39 5 73 23z" />
    <glyph glyph-name="D" unicode="D" horiz-adv-x="769" 
d="M722 199q0 -107 -41 -153t-144 -46h-502q14 28 17 55q2 14 2 65v460q0 61 -2 73.5t-17 47.5h502q101 0 143 -45.5t42 -153.5v-303zM475 173v355q0 36 -5 44q-8 13 -41 13h-128v-469h128q32 0 39 10t7 47z" />
    <glyph glyph-name="E" unicode="E" horiz-adv-x="639" 
d="M626 135l-22 -135h-569q14 28 17 55q2 14 2 65v460q0 61 -2 73.5t-17 47.5h559l20 -135q-87 19 -112 19h-201v-165h175q47 0 40 -1q28 3 72 20v-153q-89 18 -112 18h-175v-188h214q56 0 45 -1q21 2 66 20z" />
    <glyph glyph-name="F" unicode="F" horiz-adv-x="619" 
d="M613 566q-66 19 -111 19h-201v-165h175q47 0 40 -1q28 3 72 20v-153q-89 18 -112 18h-175v-184q0 -58 0 -52q2 -27 20 -68h-286q14 28 17 55q2 14 2 65v460q0 61 -2 73.5t-17 47.5h559z" />
    <glyph glyph-name="G" unicode="G" horiz-adv-x="769" 
d="M748 420q-21 -34 -26 -51t-5 -58v-173q0 -70 3 -85q3 -22 24 -53h-218l-8 65q-13 -39 -26 -50q-18 -15 -66 -15h-218q-82 0 -121 46q-42 50 -42 160v289q0 206 163 206h472l20 -135q-78 19 -99 19h-261q-49 0 -49 -45v-379q0 -45 49 -45h82q48 0 48 45v143h-92
q-9 0 -40 -13v129h410z" />
    <glyph glyph-name="H" unicode="H" horiz-adv-x="788" 
d="M752 0h-288q12 24 16 65q5 53 5 55v184h-184v-184q0 -58 0 -52q2 -27 20 -68h-286q14 28 17 55q2 14 2 65v460q0 61 -2 73.5t-17 47.5h286q-20 -42 -20 -121v-160h184v160q0 62 -2 73q-1 6 -19 48h288q-21 -47 -21 -121v-460v-52q3 -27 21 -68z" />
    <glyph glyph-name="I" unicode="I" horiz-adv-x="394" 
d="M340 0h-288q12 25 16 65q2 28 4 55v460q0 64 -1.5 72t-18.5 49h288q-21 -44 -21 -121v-460v-52q3 -27 21 -68z" />
    <glyph glyph-name="J" unicode="J" horiz-adv-x="601" 
d="M561 701q-19 -50 -19 -121v-376q0 -120 -52 -165q-45 -39 -156 -39h-321l-20 135q48 -19 87 -19h144q43 0 57 17t14 71v376v73q-1 10 -21 48h287z" />
    <glyph glyph-name="K" unicode="K" horiz-adv-x="788" 
d="M807 0h-303l-145 297l-58 -71v-106q0 -58 0 -52q2 -27 20 -68h-286q14 28 17 55q2 14 2 65v460q0 61 -2 73.5t-17 47.5h286q-20 -42 -20 -121v-193l168 212q35 44 35 85q0 10 -2 17h225q-34 -25 -84 -69l-120 -138l236 -429q19 -34 48 -65z" />
    <glyph glyph-name="L" unicode="L" horiz-adv-x="619" 
d="M623 139l-21 -139h-557q11 27 15 67q2 26 4 53v460q0 47 -2 64q-3 21 -17 57h287q-21 -40 -21 -121v-464h206q76 0 106 23z" />
    <glyph glyph-name="M" unicode="M" horiz-adv-x="993" 
d="M959 0h-289q12 25 17 65q2 28 4 55v432l-181 -552h-170l-175 552l-2 -426q0 -45 2 -60q5 -34 23 -66h-155q18 27 22 61q1 12 1 65v463q0 54 -3.5 71t-19.5 41h338l124 -398l133 398h331q-22 -50 -22 -121v-460q0 -47 2 -62q4 -29 20 -58z" />
    <glyph glyph-name="N" unicode="N" horiz-adv-x="806" 
d="M773 701q-12 -18 -15 -30q-8 -29 -8 -96v-575h-320l-267 580l-2 -454q0 -86 25 -126h-155q18 27 22 61q1 12 1 65v463q0 54 -3.5 71t-19.5 41h345l264 -572v460q0 53 -3 68q-3 21 -19 44h155z" />
    <glyph glyph-name="O" unicode="O" horiz-adv-x="788" 
d="M742 206q0 -107 -40 -156.5t-125 -49.5h-369q-82 0 -121 46q-42 50 -42 160v289q0 206 163 206h369q84 0 123 -46q42 -49 42 -160v-289zM495 161v379q0 45 -48 45h-107q-49 0 -49 -45v-379q0 -45 49 -45h107q48 0 48 45z" />
    <glyph glyph-name="P" unicode="P" horiz-adv-x="751" 
d="M721 420q0 -94 -38 -132t-126 -38h-256v-130q0 -58 0 -52q2 -27 20 -68h-286q14 28 17 55q2 14 2 65v460q0 52 -2 64q-4 31 -23 57h528q85 0 123 -35q41 -39 41 -136v-110zM474 426v99q0 36 -6 46q-8 14 -38 14h-129v-219h129q26 0 35 10.5t9 49.5z" />
    <glyph glyph-name="Q" unicode="Q" horiz-adv-x="788" 
d="M742 206q0 -107 -40 -156.5t-125 -49.5h-30l47 -90h-98l-47 90h-241q-82 0 -121 46q-42 50 -42 160v289q0 206 163 206h369q84 0 123 -46q42 -49 42 -160v-289zM495 161v379q0 45 -48 45h-107q-49 0 -49 -45v-379q0 -45 49 -45h48l-53 103h95l50 -94q15 9 15 36z" />
    <glyph glyph-name="R" unicode="R" horiz-adv-x="788" 
d="M769 0h-275l-118 304h-75v-184q0 -58 0 -52q2 -27 20 -68h-286q14 28 17 55q2 14 2 65v460q0 52 -2 64q-4 31 -23 57h530q88 0 127 -33q41 -36 41 -122v-129q0 -63 -22 -86.5t-77 -26.5l88 -197q20 -44 53 -107zM480 460v85q0 24 -4 31q-7 9 -35 9h-140v-165h140
q25 0 32 7t7 33z" />
    <glyph glyph-name="S" unicode="S" 
d="M666 172q0 -80 -24 -117q-35 -55 -130 -55h-445l-20 142q13 -9 26 -17q20 -9 71 -9h237q47 0 47 31v48q0 21 -13 27q-9 4 -34 4h-200q-78 0 -107 31t-29 121v156q0 167 136 167h458l20 -139q-51 23 -100 23h-229q-29 0 -35 -3q-12 -5 -12 -28v-39q0 -19 8 -25t39 -6h175
q81 0 121 -33t40 -108v-171z" />
    <glyph glyph-name="T" unicode="T" horiz-adv-x="655" 
d="M655 556q-29 29 -93 29h-111v-465q0 -73 19 -120h-286q12 25 16 65q2 28 4 55v465h-112q-30 0 -45 -4q-18 -6 -47 -25l20 145h614z" />
    <glyph glyph-name="U" unicode="U" horiz-adv-x="788" 
d="M760 701q-15 -27 -18 -42q-6 -25 -6 -84v-358q0 -122 -36 -168q-39 -49 -145 -49h-327q-93 0 -135.5 51.5t-42.5 165.5v363q0 64 -1.5 72t-18.5 49h286q-20 -42 -20 -121v-398q0 -66 61 -66h198q51 0 62.5 10.5t11.5 59.5v389q-1 28 -4 51q-6 54 -20 75h155z" />
    <glyph glyph-name="V" unicode="V" horiz-adv-x="769" 
d="M781 701l-22 -28q-17 -28 -42 -99l-204 -574h-275l-214 636q-13 39 -39 65h307q-8 -59 15 -129l142 -423l151 423q18 50 18 97q0 19 -3 32h166z" />
    <glyph glyph-name="W" unicode="W" horiz-adv-x="1013" 
d="M1032 701q-33 -45 -47 -106l-131 -595h-239l-110 464l-106 -464h-236l-144 610q-4 10 -41 91h292q-6 -28 -6 -60q0 -30 6 -55l76 -337l103 452h246l106 -454l75 339q7 32 7 61q0 32 -8 54h157z" />
    <glyph glyph-name="X" unicode="X" horiz-adv-x="769" 
d="M796 0h-353q0 37 -3 48q-6 20 -35 62l-70 102l-111 -122q-49 -53 -53 -90h-190q12 5 107 104l181 203l-208 297q-38 54 -40 56q-8 9 -50 41h365q0 -50 22 -83l81 -121l101 112q23 25 28 33q16 25 22 59h201q-7 -4 -10 -4h-3l-2 1q-8 0 -100 -103l-171 -192l209 -307
q47 -69 82 -96z" />
    <glyph glyph-name="Y" unicode="Y" horiz-adv-x="751" 
d="M770 701q-40 -36 -48 -45q-15 -18 -38 -58l-194 -338v-140q0 -58 0 -52q2 -27 20 -68h-287q14 25 18 65q2 28 3 55v154l-236 392q-8 13 -30 35h332q-5 -39 3 -53l139 -238l110 193q17 30 20 49q2 24 5 49h183z" />
    <glyph glyph-name="Z" unicode="Z" horiz-adv-x="694" 
d="M686 701l-333 -585h197q65 0 96 14l-16 -130h-625l333 585h-195q-61 0 -93 -22l17 138h619z" />
    <glyph glyph-name="bracketleft" unicode="[" horiz-adv-x="431" 
d="M402 -114h-321v815h319v-116h-89v-583h91v-116z" />
    <glyph glyph-name="backslash" unicode="\" horiz-adv-x="282" 
d="M319 0h-106l-252 701h106z" />
    <glyph glyph-name="bracketright" unicode="]" horiz-adv-x="431" 
d="M350 -114h-321v116h90v583h-88v116h319v-815z" />
    <glyph glyph-name="asciicircum" unicode="^" horiz-adv-x="608" 
d="M519 320h-103l-113 268l-114 -268h-102l168 381h95z" />
    <glyph glyph-name="underscore" unicode="_" horiz-adv-x="507" 
d="M505 -137h-505v55h505v-55z" />
    <glyph glyph-name="grave" unicode="`" horiz-adv-x="338" 
d="M272 580h-137l-174 162h210z" />
    <glyph glyph-name="a" unicode="a" 
d="M689 0h-238l-12 57q-11 -33 -27 -43q-20 -14 -72 -14h-171q-75 0 -105.5 34.5t-30.5 120.5v38q0 84 29.5 119.5t106.5 35.5h218q19 0 30.5 10.5t11.5 24.5q0 31 -42 31h-237q-52 0 -96 -22l17 123h435q87 0 123 -43.5t36 -150.5v-225q0 -39 3 -54q5 -23 21 -42zM427 174
v73h-106q-51 0 -51 -43v-59q0 -27 11.5 -35.5t39.5 -8.5h55q38 0 46 14q5 10 5 59z" />
    <glyph glyph-name="b" unicode="b" 
d="M678 160q0 -160 -149 -160h-201q-27 0 -55 55l-15 -55h-238q14 24 18 42q3 15 3 54v508q0 69 -21 97h258v-237q12 28 22 38q15 13 43 13h186q149 0 149 -160v-195zM441 140v234q0 40 -34 40h-95q-34 0 -34 -40v-234q0 -39 34 -39h95q34 0 34 39z" />
    <glyph glyph-name="c" unicode="c" horiz-adv-x="601" 
d="M573 387q-25 27 -112 27h-136q-55 0 -55 -53v-208q0 -52 55 -52h117q82 0 125 25l-16 -126h-369q-149 0 -149 160v195q0 160 149 160h371z" />
    <glyph glyph-name="d" unicode="d" 
d="M691 0h-238l-13 55q-15 -32 -23 -41q-13 -14 -34 -14h-201q-149 0 -149 160v195q0 160 149 160h186q46 0 62 -51l2 140q1 66 -20 97h258v-605q0 -60 21 -96zM432 140v234q0 40 -33 40h-95q-34 0 -34 -40v-234q0 -39 34 -39h95q33 0 33 39z" />
    <glyph glyph-name="e" unicode="e" 
d="M669 201h-399v-48q0 -52 55 -52h230q68 0 107 22l-17 -123h-476q-75 0 -105.5 34.5t-30.5 120.5v204q0 86 29.5 121t106.5 35h363q75 0 106 -34t31 -122v-158zM438 302v70q0 42 -35 42h-98q-35 0 -35 -42v-70h168z" />
    <glyph glyph-name="f" unicode="f" horiz-adv-x="507" 
d="M549 581q-42 19 -87 19h-89q-38 0 -38 -35v-50h189v-101h-189v-296q0 -65 0 -63q2 -12 25 -55h-291q9 13 17 26q10 22 10 92v296h-100v101h100v48q0 62 32 98q35 40 103 40h302z" />
    <glyph glyph-name="g" unicode="g" 
d="M697 515q-27 -72 -27 -137v-378q0 -106 -36.5 -150.5t-122.5 -44.5h-439l-16 129q61 -28 110 -28h205q43 0 54 18q7 12 7 58v69q-18 -44 -43 -49q-9 -2 -21 -2h-186q-149 0 -149 160v195q0 160 149 160h187q35 0 51.5 -11t24.5 -44l13 55h239zM432 142v230q0 42 -34 42
h-93q-21 0 -25 -2q-10 -7 -10 -40v-230q0 -41 35 -41h93q21 0 27.5 9t6.5 32z" />
    <glyph glyph-name="h" unicode="h" horiz-adv-x="731" 
d="M712 0h-291q9 12 17 24q10 22 10 94v253q0 24 -8 33.5t-32 9.5h-87q-21 0 -28 -6q-11 -9 -11 -37v-253q0 -49 4 -68.5t22 -49.5h-291q8 10 17 20q10 21 10 98v465q0 42 -4.5 63.5t-22.5 54.5h265v-237q20 51 60 51h185q158 0 158 -188v-209q0 -49 4.5 -68.5t22.5 -49.5z
" />
    <glyph glyph-name="i" unicode="i" horiz-adv-x="357" 
d="M295 565h-235v136h235v-136zM323 0h-290q25 42 25 118v278q0 48 -3 66q-5 22 -22 53h264v-397q0 -49 4 -68.5t22 -49.5z" />
    <glyph glyph-name="j" unicode="j" horiz-adv-x="357" 
d="M305 565h-235v136h235v-136zM307 -23q0 -99 -29.5 -135.5t-112.5 -36.5h-321l-17 131q30 -21 41.5 -25.5t32.5 -4.5h120q29 0 39 15q8 11 8 45v430q0 43 -4.5 64t-20.5 55h264v-538z" />
    <glyph glyph-name="k" unicode="k" 
d="M720 0h-288l-110 240l-40 -35v-87q0 -49 4 -68.5t22 -49.5h-291q8 10 17 20q10 21 10 98v465q0 42 -4.5 63.5t-22.5 54.5h265v-367l114 100q40 35 51 81h214q-26 -13 -60 -33l-104 -88l156 -289q39 -72 67 -105z" />
    <glyph glyph-name="l" unicode="l" horiz-adv-x="357" 
d="M323 0h-290q25 42 25 118v465q0 48 -4 68.5t-21 49.5h264v-583q0 -49 4 -68.5t22 -49.5z" />
    <glyph glyph-name="m" unicode="m" horiz-adv-x="1013" 
d="M996 0h-271q9 13 17 26q10 22 10 92v259q0 37 -30 37h-78q-30 0 -30 -37v-259q0 -52 3 -68q5 -21 24 -50h-272q8 11 17 21q10 23 10 97v259q0 37 -30 37h-78q-30 0 -30 -37v-259q0 -52 3 -68q5 -21 24 -50h-271q9 12 17 24q10 22 10 94v278q0 64 -27 119h227l6 -63
q11 34 23.5 48.5t39.5 14.5h213q40 0 55 -10t28 -46q9 30 16 40q12 16 39 16h164q74 0 106 -38q38 -45 38 -164v-195q0 -52 3 -68q5 -21 24 -50z" />
    <glyph glyph-name="n" unicode="n" horiz-adv-x="731" 
d="M712 0h-291q9 12 17 24q10 22 10 94v253q0 24 -8 33.5t-32 9.5h-87q-21 0 -28 -6q-11 -9 -11 -37v-253q0 -49 4 -68.5t22 -49.5h-291q8 10 17 20q10 21 10 98v278q0 69 -27 119h246l7 -54q24 54 65 54h192q158 0 158 -188v-209q0 -49 4.5 -68.5t22.5 -49.5z" />
    <glyph glyph-name="o" unicode="o" 
d="M678 155q0 -83 -27 -117q-31 -38 -109 -38h-373q-75 0 -105.5 34.5t-30.5 120.5v204q0 86 29.5 121t106.5 35h373q75 0 105.5 -34t30.5 -122v-204zM441 142v230q0 24 -5 32q-8 10 -32 10h-99q-21 0 -25 -2q-10 -7 -10 -40v-230q0 -41 35 -41h99q37 0 37 41z" />
    <glyph glyph-name="p" unicode="p" 
d="M678 160q0 -160 -149 -160h-186q-50 0 -65 50v-149q0 -60 21 -96h-258v613q0 69 -21 97h232l13 -55l17 34q17 21 46 21h201q149 0 149 -160v-195zM441 140v234q0 40 -34 40h-95q-34 0 -34 -40v-234q0 -39 34 -39h95q34 0 34 39z" />
    <glyph glyph-name="q" unicode="q" 
d="M691 515q-6 -7 -11 -14q-10 -21 -10 -83v-613h-258q13 24 15 33q5 19 5 63v149q-10 -26 -20 -35q-14 -15 -44 -15h-186q-149 0 -149 160v195q0 160 149 160h201q25 0 40 -15q10 -11 23 -40l12 55h233zM432 140v234q0 40 -33 40h-95q-34 0 -34 -40v-234q0 -39 34 -39h95
q33 0 33 39z" />
    <glyph glyph-name="r" unicode="r" horiz-adv-x="525" 
d="M515 346l-20 16q-27 12 -90 9q-59 -2 -82 -16q-30 -19 -30 -71v-166q0 -49 4 -68.5t22 -49.5h-290l16 30q9 24 9 88v278q0 43 -2 57q-5 24 -23 62h237l8 -84q22 49 46.5 66.5t78.5 17.5h116v-169z" />
    <glyph glyph-name="s" unicode="s" horiz-adv-x="675" 
d="M632 136q0 -59 -33 -95q-37 -41 -109 -41h-442l-18 124q33 -18 57 -23q30 -7 90 -7h201q32 0 32 28v10q0 28 -32 28h-207q-70 0 -99 30t-29 94v99q0 59 40 95.5t110 36.5h410l20 -128q-24 33 -142 33h-184q-33 0 -33 -18v-22q0 -19 33 -19h206q129 0 129 -122v-103z" />
    <glyph glyph-name="t" unicode="t" horiz-adv-x="563" 
d="M552 120l-15 -120h-299q-142 0 -142 161v253h-102v101h102v110l239 1v-111h189v-101h-189v-272q0 -26 4 -31q8 -10 42 -10h84q34 0 52 5q3 1 35 14z" />
    <glyph glyph-name="u" unicode="u" horiz-adv-x="731" 
d="M712 0h-247l-7 54q-21 -54 -63 -54h-193q-158 0 -158 187v209q0 69 -27 119h265v-372q0 -42 39 -42h87q40 0 40 42v253q0 64 -27 119h264v-397q0 -49 4.5 -68.5t22.5 -49.5z" />
    <glyph glyph-name="v" unicode="v" horiz-adv-x="639" 
d="M657 515q-37 -63 -53 -107l-153 -408h-254l-186 459q-12 24 -32 56h287q0 -24 11 -74l121 -307l119 318q11 29 0 63h140z" />
    <glyph glyph-name="w" unicode="w" horiz-adv-x="938" 
d="M952 515q-30 -39 -49 -122l-89 -393h-247l-96 392l-92 -392h-248l-108 430q-11 44 -39 85h280q-7 -54 -1 -78l65 -251l78 329h273l82 -329l55 219q8 32 8 66q0 25 -4 44h132z" />
    <glyph glyph-name="x" unicode="x" 
d="M721 0h-338q0 9 -20 46l-67 93l-100 -91q-19 -17 -32 -48h-174l109 88l140 131l-190 256l-40 40h329q4 -15 14 -39l65 -91l92 90q17 17 25 40h168l-60 -53l-165 -159l172 -229q23 -30 32 -41q14 -14 40 -33z" />
    <glyph glyph-name="y" unicode="y" horiz-adv-x="731" 
d="M675 -48q0 -147 -131 -147h-469l-18 126q26 -15 51.5 -18.5t51.5 -6.5h229q49 0 49 37v107q-12 -28 -23 -37q-17 -13 -57 -13h-156q-158 0 -158 187v209q0 69 -27 119h265v-372q0 -42 39 -42h88q14 0 21.5 5.5t7.5 38.5v272q0 46 -3 62t-17 36h257v-563z" />
    <glyph glyph-name="z" unicode="z" horiz-adv-x="675" 
d="M662 130l-15 -130h-631l283 414h-148q-62 0 -70 -1q-11 -3 -58 -26l17 128h607l-275 -414h169q69 0 121 29z" />
    <glyph glyph-name="braceleft" unicode="{" horiz-adv-x="431" 
d="M426 -114h-198q-51 0 -88.5 36.5t-37.5 81.5v184q0 32 -28 50t-64 18v81q34 0 60 15q32 18 32 48v183q0 44 37.5 81t88.5 37h198v-72h-38q-55 0 -55 -62v-178q0 -39 -34 -65q-29 -21 -68 -26q38 0 66 -20q36 -27 36 -79v-179q0 -34 12 -48t43 -14h38v-72z" />
    <glyph glyph-name="bar" unicode="|" horiz-adv-x="224" 
d="M165 0h-107v701h107v-701z" />
    <glyph glyph-name="braceright" unicode="}" horiz-adv-x="431" 
d="M420 256q-92 0 -92 -68v-184q0 -43 -36 -80q-39 -38 -90 -38h-198v72h39q55 0 55 62v179q0 89 102 97q-102 15 -102 93v178q0 31 -11.5 45t-43.5 17h-39v72h198q49 0 87.5 -36t38.5 -82v-183q0 -29 29 -46q25 -15 63 -17v-81z" />
    <glyph glyph-name="asciitilde" unicode="~" horiz-adv-x="608" 
d="M519 257q-34 -52 -58 -69.5t-59 -17.5q-31 0 -93.5 34.5t-109.5 34.5q-43 0 -79 -74l-33 92q39 88 116 88q31 0 108 -34.5t92 -34.5q25 0 46 23q12 12 37 50z" />
    <glyph glyph-name="nonbreakingspace" unicode="&#xa0;" horiz-adv-x="400" 
 />
    <glyph glyph-name="exclamdown" unicode="&#xa1;" horiz-adv-x="357" 
d="M297 331h-239v184h239v-184zM297 -186h-239v280l24 195h191l24 -195v-280z" />
    <glyph glyph-name="cent" unicode="&#xa2;" horiz-adv-x="544" 
d="M504 464q-57 23 -91 23h-101q-34 0 -34 -31v-206q0 -32 34 -32h96q47 0 91 25l-14 -108h-156v-112h-86v112h-66q-119 0 -119 117v201q0 62 22 89.5t76 27.5h87v107h86v-107h160z" />
    <glyph glyph-name="sterling" unicode="&#xa3;" horiz-adv-x="788" 
d="M752 142q0 -142 -161 -142h-533v122q133 21 136 131l-8 51h-146v90h79q-29 35 -37 63q-8 23 -8 71q-1 98 35.5 135.5t134.5 37.5h344q69 0 113.5 -37.5t44.5 -105.5v-55h-239v54q0 28 -45 28h-85q-57 0 -57 -34q0 -21 22 -54l69 -103h258v-90h-237q0 -63 -16 -99
q-19 -43 -73 -87l112 -2q50 -1 50 43v41h247v-58z" />
    <glyph glyph-name="currency" unicode="&#xa4;" horiz-adv-x="788" 
d="M655 568l-58 -62q46 -72 46 -156q0 -83 -46 -154l57 -62l-59 -64l-55 62q-63 -52 -148 -53q-84 -1 -145 51l-57 -61l-59 65l56 61q-44 68 -45 155q-1 86 45 156l-56 63l61 67l57 -62q60 48 143 48q78 0 140 -46l58 62zM529 350q1 61 -39 104.5t-98 44.5q-55 1 -96 -42.5
t-42 -106.5q-1 -59 38.5 -103t99.5 -46q53 -1 94.5 43t42.5 106z" />
    <glyph glyph-name="yen" unicode="&#xa5;" horiz-adv-x="788" 
d="M788 701q-34 -30 -45 -43q-17 -20 -40 -60l-80 -138h67v-90h-119l-49 -85h168v-90h-182v-75q0 -58 0 -52q2 -27 20 -68h-286q19 39 19 120v75h-181v90h175l-51 85h-124v90h71l-124 206q-6 10 -31 35h332q-1 -44 4 -53l137 -238l116 203q17 30 20 88h183z" />
    <glyph glyph-name="brokenbar" unicode="&#xa6;" horiz-adv-x="224" 
d="M165 438h-107v263h107v-263zM165 0h-107v263h107v-263z" />
    <glyph glyph-name="section" unicode="&#xa7;" horiz-adv-x="675" 
d="M613 557q-28 25 -51 33q-28 10 -80 10h-214q-24 0 -31 -5q-11 -7 -11 -30v-22q0 -18 6 -25q9 -10 36 -10h201q74 0 107.5 -29.5t33.5 -99.5v-92q0 -69 -13 -94.5t-54 -41.5q36 -15 50 -39q17 -28 17 -82v-86q0 -139 -130 -139h-385l-39 152q54 -51 117 -51h238
q38 0 38 27v55q0 27 -38 27h-211q-136 0 -136 145v98q0 104 71 121q-71 22 -71 98v103q0 121 132 121h388zM449 246v31q0 43 -31 43h-162q-30 0 -30 -43v-31q0 -42 30 -42h162q31 0 31 42z" />
    <glyph glyph-name="dieresis" unicode="&#xa8;" horiz-adv-x="350" 
d="M375 587h-171v142h171v-142zM146 587h-172v142h172v-142z" />
    <glyph glyph-name="copyright" unicode="&#xa9;" horiz-adv-x="810" 
d="M740 350q0 -139 -98.5 -237.5t-237.5 -98.5t-237.5 98.5t-98.5 237.5t98.5 237.5t237.5 98.5t237.5 -98.5t98.5 -237.5zM639 350q0 98 -68.5 166.5t-166.5 68.5q-97 0 -166 -68.5t-69 -166.5q0 -97 69 -166t166 -69q98 0 166.5 69t68.5 166zM540 250l-11 -68h-190
q-80 0 -80 98v139q0 99 80 99h185l9 -64l-47 9h-85q-24 0 -24 -22v-183q0 -20 24 -20h66q35 0 73 12z" />
    <glyph glyph-name="ordfeminine" unicode="&#xaa;" horiz-adv-x="427" 
d="M435 392h-156l-8 34q-6 -20 -15 -26q-12 -8 -49 -8h-127q-72 0 -72 83v43q0 84 72 84h159q15 0 19.5 2.5t5.5 16.5q0 18 -25 18h-155q-37 0 -62 -12l12 74h282q56 0 80 -26.5t24 -89.5v-135q0 -40 15 -58zM264 496v45h-68q-21 0 -25 -2q-8 -5 -8 -24v-36q0 -26 33 -26h36
q23 0 29 10q3 5 3 33z" />
    <glyph glyph-name="guillemotleft" unicode="&#xab;" horiz-adv-x="563" 
d="M526 59h-167l-98 193l98 204h167l-98 -204zM300 59h-166l-98 193l98 204h166l-98 -204z" />
    <glyph glyph-name="logicalnot" unicode="&#xac;" horiz-adv-x="1200" 
d="M1162 -83h-1123v765h1123v-765zM1067 255v18q-32 0 -38 2q-15 5 -15 30v250q0 56 3 63q7 15 50 15v18h-160v-18q42 0 49 -12q4 -7 4 -56v-258q0 -25 -15 -31q-7 -3 -38 -3v-18h160zM1141 27q0 40 -40 56q-38 9 -77 19.5t-39 40.5q0 21 15.5 33.5t37.5 12.5q33 0 58 -29
q5 -20 5 -35l16 -1q1 23 7 69q-42 13 -80 13q-103 0 -103 -82q0 -42 40 -58q37 -9 75 -18q40 -12 40 -43q0 -24 -18.5 -38t-43.5 -14q-42 0 -57 15.5t-15 55.5h-16q0 -11 -2 -33t-2 -34q0 -23 82 -23q46 0 79 23q38 26 38 70zM941 184h-86q1 33 5 95q60 49 60 102
q0 71 -60 89q-55 8 -110 15q-60 12 -60 68q0 38 29 60q26 20 65 20q53 0 82 -26q5 -11 5 -54h18q0 47 9 80q-52 21 -111 21q-62 0 -102 -29q-45 -34 -45 -93q0 -70 60 -88q55 -8 111 -17q60 -12 60 -68q0 -41 -32.5 -63.5t-75.5 -22.5q-25 0 -53 8q-34 11 -41 29q-1 3 -1 48
h-19q0 -65 -3 -87q51 -21 106 -21q27 0 51 6q5 -40 5 -72q-19 -11 -45 -19v-12h45v-157q0 -62 64 -62q12 0 36 6l27 34l-8 11q-13 -15 -32 -15q-28 0 -36 28q-4 13 -4 52v108q75 0 80 -1zM802 -60v17q-37 0 -43 12q-1 3 -1 49v92q0 96 -93 96q-52 0 -93 -53q0 44 -4 53
q-42 -19 -93 -22v-17h29q18 -3 18 -16v-172q0 -19 -16 -22h-31v-17h144l-1 17q-30 0 -39.5 9t-9.5 30q0 6 1 24t1 30q0 66 6 82q13 38 67 38q65 0 65 -85q0 -107 -4 -145h97zM680 633v18h-119v-18q50 0 50 -13q0 -24 -39 -155q-19 -64 -39 -129l-116 318h-14
q-40 -105 -122 -315q-41 172 -60 269q-4 6 -3 10q0 15 49 15v18h-143v-18q26 0 32 -6.5t13 -35.5q15 -60 31 -119q19 -76 23 -118q-23 0 -58.5 -32.5t-46.5 -57.5q-7 -15 -7 -81q-6 -3 -19.5 -9.5t-20.5 -10.5v-10l40 4l1 -153q0 -32 -8.5 -39.5t-41.5 -7.5v-17h155v17
q-37 0 -43 3q-15 6 -15 38q0 26 1 80v80q24 1 71 -1l5 25l-2 2h-74v36q0 49 3 61q8 32 41 32q17 0 29 -9l11 -54h29q44 131 122 311q41 -103 112 -311h30q16 65 54 198q46 161 60 181q7 4 29 4zM487 80q0 57 -36 91.5t-93 34.5q-61 0 -102 -36.5t-41 -96.5q0 -59 34 -99
t92 -40q64 0 105 41t41 105zM434 56q0 -42 -16 -70q-20 -33 -59 -33q-46 0 -70 49q-19 39 -19 90q0 39 18 66q21 31 57 31q47 0 71 -45q18 -36 18 -88z" />
    <glyph glyph-name="minus" unicode="&#xad;" horiz-adv-x="431" 
d="M393 165h-355v184h355v-184z" />
    <glyph glyph-name="minus" unicode="&#x2212;" horiz-adv-x="431" 
d="M393 165h-355v184h355v-184z" />
    <glyph glyph-name="registered" unicode="&#xae;" horiz-adv-x="810" 
d="M740 350q0 -139 -98.5 -237.5t-237.5 -98.5t-237.5 98.5t-98.5 237.5t98.5 237.5t237.5 98.5t237.5 -98.5t98.5 -237.5zM639 350q0 98 -68.5 166.5t-166.5 68.5q-97 0 -166 -68.5t-69 -166.5q0 -97 69 -166t166 -69q98 0 166.5 69t68.5 166zM556 210h-110l-46 122h-32
v-74l8 -48h-114q3 6 8 48v184l-11 49h213q68 0 68 -62v-52q0 -21 -4 -30q-7 -13 -36 -15zM442 394v34q0 17 -18 17h-56v-67h56q18 0 18 16z" />
    <glyph glyph-name="macron" unicode="&#xaf;" horiz-adv-x="338" 
d="M358 612h-379v99h379v-99z" />
    <glyph glyph-name="macron" unicode="&#x2c9;" horiz-adv-x="338" 
d="M358 612h-379v99h379v-99z" />
    <glyph glyph-name="degree" unicode="&#xb0;" horiz-adv-x="447" 
d="M379 544q1 -65 -44.5 -110.5t-113.5 -46.5q-64 -1 -111 45t-48 112q-1 65 45 110.5t114 45.5q63 0 110 -45t48 -111zM221 433q44 -1 75 30t31 81q0 44 -29 76t-77 34q-44 1 -74 -30.5t-31 -79.5q-1 -47 28.5 -78.5t76.5 -32.5z" />
    <glyph glyph-name="plusminus" unicode="&#xb1;" horiz-adv-x="608" 
d="M541 273h-185v-127h-106v127h-185v116h185v126h106v-126h185v-116zM541 0h-476v116h476v-116z" />
    <glyph glyph-name="twosuperior" unicode="&#xb2;" horiz-adv-x="489" 
d="M463 368l-14 -88h-422v188q0 51 14.5 68.5t65.5 20.5l170 10q26 2 26 21v23q0 20 -32 20h-165q-54 0 -84 -15l15 85h310q62 0 86 -20.5t24 -76.5v-83q0 -52 -23 -69q-18 -13 -71 -16l-158 -8q-7 0 -19 -26v-52h189q21 0 88 18z" />
    <glyph glyph-name="threesuperior" unicode="&#xb3;" horiz-adv-x="472" 
d="M472 355q0 -75 -83 -75h-320l-15 90q59 -20 74 -20h156q29 0 29 26v58q0 25 -29 25h-76l-72 -11v92q54 -11 72 -11h76q18 0 22.5 4t6.5 21v52q0 15 -4 20t-25 5h-171q-11 0 -59 -16l14 86h290q61 0 87.5 -18t26.5 -65v-68q0 -51 -99 -54q59 0 79 -15t20 -57v-69z" />
    <glyph glyph-name="acute" unicode="&#xb4;" horiz-adv-x="338" 
d="M376 742l-174 -162h-138l100 162h212z" />
    <glyph glyph-name="mu" unicode="&#xb5;" horiz-adv-x="731" 
d="M712 0h-247l-7 54q-21 -54 -63 -54h-113v-99q0 -63 20 -96h-258v591q0 69 -27 119h265v-372q0 -42 39 -42h87q40 0 40 42v253q0 64 -27 119h264v-397q0 -49 4.5 -68.5t22.5 -49.5z" />
    <glyph glyph-name="mu" unicode="&#x3bc;" horiz-adv-x="731" 
d="M712 0h-247l-7 54q-21 -54 -63 -54h-113v-99q0 -63 20 -96h-258v591q0 69 -27 119h265v-372q0 -42 39 -42h87q40 0 40 42v253q0 64 -27 119h264v-397q0 -49 4.5 -68.5t22.5 -49.5z" />
    <glyph glyph-name="paragraph" unicode="&#xb6;" horiz-adv-x="628" 
d="M545 -195h-114v803h-102v-803h-113v509q-106 0 -165 50.5t-59 139.5q0 104 63 152q60 45 184 45h306v-896z" />
    <glyph glyph-name="periodcentered" unicode="&#xb7;" horiz-adv-x="285" 
d="M212 257q0 -28 -20 -48.5t-49 -20.5q-28 0 -48.5 20.5t-20.5 48.5q0 29 20.5 49t48.5 20q29 0 49 -20t20 -49z" />
    <glyph glyph-name="periodcentered" unicode="&#x2219;" horiz-adv-x="285" 
d="M212 257q0 -28 -20 -48.5t-49 -20.5q-28 0 -48.5 20.5t-20.5 48.5q0 29 20.5 49t48.5 20q29 0 49 -20t20 -49z" />
    <glyph glyph-name="cedilla" unicode="&#xb8;" horiz-adv-x="350" 
d="M302 -149q1 -40 -30 -70q-38 -35 -106 -36q-53 -1 -124 32l19 50q39 -11 88 -22q50 0 52 42q1 36 -49 36l-34 -10l-26 26l57 101h58l-40 -70l32 5q46 -1 76 -27q26 -24 27 -57z" />
    <glyph glyph-name="onesuperior" unicode="&#xb9;" horiz-adv-x="316" 
d="M261 280h-190q16 43 16 58v235h-60v74l177 54h43v-363q0 -28 1 -32q2 -13 13 -26z" />
    <glyph glyph-name="ordmasculine" unicode="&#xba;" horiz-adv-x="427" 
d="M423 485q0 -49 -17 -69q-20 -24 -72 -24h-243q-50 0 -69.5 20t-19.5 73v123q0 51 19.5 72t69.5 21h243q49 0 69 -19.5t20 -73.5v-123zM267 477v138q0 24 -22 24h-65q-23 0 -23 -24v-138q0 -24 22 -24h65q23 0 23 24z" />
    <glyph glyph-name="guillemotright" unicode="&#xbb;" horiz-adv-x="563" 
d="M526 252l-98 -193h-167l98 193l-98 204h167zM300 252l-98 -193h-166l98 193l-98 204h166z" />
    <glyph glyph-name="onequarter" unicode="&#xbc;" horiz-adv-x="1182" 
d="M1157 94h-71v-33q0 -26 1 -30q2 -9 18 -31h-196l12 28t6 33v33h-279v104l251 221h187v-214h71v-111zM771 701l-363 -701h-143l364 701h142zM261 280h-190q16 43 16 58v235h-60v74l177 54h43v-363q0 -28 1 -32q2 -13 13 -26zM927 205v139l-164 -137z" />
    <glyph glyph-name="onehalf" unicode="&#xbd;" horiz-adv-x="1182" 
d="M1156 88l-16 -88h-422v187q0 52 16 69.5t65 20.5l170 10q23 1 26 21v23q0 19 -32 19h-165q-57 0 -84 -14l14 84h310q62 0 87 -21.5t25 -74.5v-83q0 -47 -20 -65.5t-74 -20.5l-159 -7q-8 0 -20 -26v-52h190q20 0 89 18zM761 701l-363 -701h-143l364 701h142zM261 280h-190
q16 43 16 58v235h-60v74l177 54h43v-363q0 -28 1 -32q2 -13 13 -26z" />
    <glyph glyph-name="threequarters" unicode="&#xbe;" horiz-adv-x="1182" 
d="M1157 94h-71v-33q0 -26 1 -30q2 -9 18 -31h-196l12 28t6 33v33h-279v104l251 221h187v-214h71v-111zM858 701l-364 -701h-142l363 701h143zM472 355q0 -75 -83 -75h-320l-15 90q59 -20 74 -20h156q29 0 29 26v58q0 25 -29 25h-76l-72 -11v92q54 -11 72 -11h76q29 0 29 25
v52q0 15 -4 20t-25 5h-171q-11 0 -59 -16l14 86h290q61 0 87.5 -18t26.5 -65v-68q0 -51 -99 -54q59 0 79 -15t20 -57v-69zM927 205v139l-164 -137z" />
    <glyph glyph-name="questiondown" unicode="&#xbf;" 
d="M548 331h-239v184h239v-184zM690 -56l-22 -130h-455q-170 0 -170 152v81q0 66 35 105t90 39h87q33 0 40 13q6 10 6 33v52h247v-79q0 -77 -28.5 -108.5t-99.5 -31.5h-81q-50 0 -50 -46v-59q0 -50 58 -50h218q68 0 125 29z" />
    <glyph glyph-name="Agrave" unicode="&#xc0;" horiz-adv-x="825" 
d="M842 0h-325q16 17 16 47q0 24 -11 52l-35 89h-284l-44 -96q-8 -18 -8 -39q0 -28 13 -53h-182q35 55 39 61q19 32 34 66l236 534l-29 40h293l229 -605q20 -54 58 -96zM445 304l-92 237l-100 -237h192zM548 739h-137l-174 162h210z" />
    <glyph glyph-name="Aacute" unicode="&#xc1;" horiz-adv-x="825" 
d="M842 0h-325q16 17 16 47q0 24 -11 52l-35 89h-284l-44 -96q-8 -18 -8 -39q0 -28 13 -53h-182q35 55 39 61q19 32 34 66l236 534l-29 40h293l229 -605q20 -54 58 -96zM445 304l-92 237l-100 -237h192zM641 899l-174 -162h-138l100 162h212z" />
    <glyph glyph-name="Acircumflex" unicode="&#xc2;" horiz-adv-x="825" 
d="M842 0h-325q16 17 16 47q0 24 -11 52l-35 89h-284l-44 -96q-8 -18 -8 -39q0 -28 13 -53h-182q35 55 39 61q19 32 34 66l236 534l-29 40h293l229 -605q20 -54 58 -96zM445 304l-92 237l-100 -237h192zM624 735h-149l-56 82l-56 -82h-149l122 162h167z" />
    <glyph glyph-name="Atilde" unicode="&#xc3;" horiz-adv-x="825" 
d="M842 0h-325q16 17 16 47q0 24 -11 52l-35 89h-284l-44 -96q-8 -18 -8 -39q0 -28 13 -53h-182q35 55 39 61q19 32 34 66l236 534l-29 40h293l229 -605q20 -54 58 -96zM445 304l-92 237l-100 -237h192zM600 875q-11 -146 -125 -146q-32 0 -86 19q-30 11 -59 21
q-33 0 -45 -47h-80q6 66 40 110t88 45q27 0 81 -20q58 -23 63 -23q35 0 43 41h80z" />
    <glyph glyph-name="Adieresis" unicode="&#xc4;" horiz-adv-x="825" 
d="M842 0h-325q16 17 16 47q0 24 -11 52l-35 89h-284l-44 -96q-8 -18 -8 -39q0 -28 13 -53h-182q35 55 39 61q19 32 34 66l236 534l-29 40h293l229 -605q20 -54 58 -96zM445 304l-92 237l-100 -237h192zM614 725h-171v142h171v-142zM385 725h-172v142h172v-142z" />
    <glyph glyph-name="Aring" unicode="&#xc5;" horiz-adv-x="825" 
d="M842 0h-325q16 17 16 47q0 24 -11 52l-35 89h-284l-44 -96q-8 -18 -8 -39q0 -28 13 -53h-182q35 55 39 61q19 32 34 66l236 534l-29 40h293l229 -605q20 -54 58 -96zM445 304l-92 237l-100 -237h192zM471 816q0 -38 -24.5 -66t-60.5 -28q-34 0 -59.5 26.5t-25.5 67.5
q0 40 24 67t61 27q34 0 59.5 -27.5t25.5 -66.5zM422 816q0 41 -37 41q-15 0 -25.5 -12t-10.5 -29q0 -14 10 -27t25 -14q15 0 26.5 11.5t11.5 29.5z" />
    <glyph glyph-name="AE" unicode="&#xc6;" horiz-adv-x="993" 
d="M980 135l-21 -135h-548q8 14 17 48q10 29 3 140h-236l-52 -107q-17 -35 -9 -81h-183q31 38 40 50q24 34 61 102l277 505l-60 44h680l19 -135q-74 19 -111 19h-180v-165h154q52 0 65 3l46 16v-153q-75 18 -111 18h-154v-188h192q57 0 65 1.5t46 17.5zM431 304v263
q0 29 -10 29q-8 0 -19 -20l-148 -272h177z" />
    <glyph glyph-name="Ccedilla" unicode="&#xc7;" horiz-adv-x="639" 
d="M627 142l-21 -142h-228l-38 -70l31 5q49 -1 77 -28q26 -23 26 -56q0 -38 -29 -67q-36 -37 -106 -39q-19 0 -126 32l21 50q37 -11 86 -22q51 -1 53 42q1 33 -48 36q-13 1 -34 -10l-27 26l56 101h-112q-82 0 -121 46q-42 50 -42 160v289q0 206 163 206h388l19 -135
q-77 19 -99 19h-176q-49 0 -49 -45v-379q0 -45 49 -45h138q55 0 76 3q39 5 73 23z" />
    <glyph glyph-name="Egrave" unicode="&#xc8;" horiz-adv-x="639" 
d="M626 135l-22 -135h-569q14 28 17 55q2 14 2 65v460q0 61 -2 73.5t-17 47.5h559l20 -135q-87 19 -112 19h-201v-165h175q47 0 40 -1q28 3 72 20v-153q-89 18 -112 18h-175v-188h214q56 0 45 -1q21 2 66 20zM495 720h-137l-174 162h210z" />
    <glyph glyph-name="Eacute" unicode="&#xc9;" horiz-adv-x="639" 
d="M626 135l-22 -135h-569q14 28 17 55q2 14 2 65v460q0 61 -2 73.5t-17 47.5h559l20 -135q-87 19 -112 19h-201v-165h175q47 0 40 -1q28 3 72 20v-153q-89 18 -112 18h-175v-188h214q56 0 45 -1q21 2 66 20zM553 888l-174 -162h-138l100 162h212z" />
    <glyph glyph-name="Ecircumflex" unicode="&#xca;" horiz-adv-x="639" 
d="M626 135l-22 -135h-569q14 28 17 55q2 14 2 65v460q0 61 -2 73.5t-17 47.5h559l20 -135q-87 19 -112 19h-201v-165h175q47 0 40 -1q28 3 72 20v-153q-89 18 -112 18h-175v-188h214q56 0 45 -1q21 2 66 20zM569 734h-149l-56 82l-56 -82h-149l122 162h167z" />
    <glyph glyph-name="Edieresis" unicode="&#xcb;" horiz-adv-x="639" 
d="M626 135l-22 -135h-569q14 28 17 55q2 14 2 65v460q0 61 -2 73.5t-17 47.5h559l20 -135q-87 19 -112 19h-201v-165h175q47 0 40 -1q28 3 72 20v-153q-89 18 -112 18h-175v-188h214q56 0 45 -1q21 2 66 20zM571 739h-171v142h171v-142zM342 739h-172v142h172v-142z" />
    <glyph glyph-name="Igrave" unicode="&#xcc;" horiz-adv-x="394" 
d="M340 0h-288q12 25 16 65q2 28 4 55v460q0 64 -1.5 72t-18.5 49h288q-21 -44 -21 -121v-460v-52q3 -27 21 -68zM340 744h-137l-174 162h210z" />
    <glyph glyph-name="Iacute" unicode="&#xcd;" horiz-adv-x="394" 
d="M340 0h-288q12 25 16 65q2 28 4 55v460q0 64 -1.5 72t-18.5 49h288q-21 -44 -21 -121v-460v-52q3 -27 21 -68zM417 883l-174 -162h-138l100 162h212z" />
    <glyph glyph-name="Icircumflex" unicode="&#xce;" horiz-adv-x="394" 
d="M340 0h-288q12 25 16 65q2 28 4 55v460q0 64 -1.5 72t-18.5 49h288q-21 -44 -21 -121v-460v-52q3 -27 21 -68zM406 719h-149l-56 82l-56 -82h-149l122 162h167z" />
    <glyph glyph-name="Idieresis" unicode="&#xcf;" horiz-adv-x="394" 
d="M340 0h-288q12 25 16 65q2 28 4 55v460q0 64 -1.5 72t-18.5 49h288q-21 -44 -21 -121v-460v-52q3 -27 21 -68zM403 733h-171v142h171v-142zM174 733h-172v142h172v-142z" />
    <glyph glyph-name="Eth" unicode="&#xd0;" horiz-adv-x="769" 
d="M722 199q0 -107 -41 -153t-144 -46h-502q14 28 17 55q2 14 2 65v184h-64v116h64v160q0 61 -2 73.5t-17 47.5h502q101 0 143 -45.5t42 -153.5v-303zM475 173v355q0 36 -5 44q-8 13 -41 13h-128v-165h93v-116h-93v-188h128q32 0 39 10t7 47z" />
    <glyph glyph-name="Ntilde" unicode="&#xd1;" horiz-adv-x="806" 
d="M773 701q-12 -18 -15 -30q-8 -29 -8 -96v-575h-320l-267 580l-2 -454q0 -86 25 -126h-155q18 27 22 61q1 12 1 65v463q0 54 -3.5 71t-19.5 41h345l264 -572v460q0 53 -3 68q-3 21 -19 44h155zM638 876q-11 -146 -125 -146q-32 0 -86 19q-30 11 -59 21q-33 0 -45 -47h-80
q6 66 40 110t88 45q27 0 81 -20q58 -23 63 -23q35 0 43 41h80z" />
    <glyph glyph-name="Ograve" unicode="&#xd2;" horiz-adv-x="788" 
d="M742 206q0 -107 -40 -156.5t-125 -49.5h-369q-82 0 -121 46q-42 50 -42 160v289q0 206 163 206h369q84 0 123 -46q42 -49 42 -160v-289zM495 161v379q0 45 -48 45h-107q-49 0 -49 -45v-379q0 -45 49 -45h107q48 0 48 45zM537 729h-137l-174 162h210z" />
    <glyph glyph-name="Oacute" unicode="&#xd3;" horiz-adv-x="788" 
d="M742 206q0 -107 -40 -156.5t-125 -49.5h-369q-82 0 -121 46q-42 50 -42 160v289q0 206 163 206h369q84 0 123 -46q42 -49 42 -160v-289zM495 161v379q0 45 -48 45h-107q-49 0 -49 -45v-379q0 -45 49 -45h107q48 0 48 45zM589 890l-174 -162h-138l100 162h212z" />
    <glyph glyph-name="Ocircumflex" unicode="&#xd4;" horiz-adv-x="788" 
d="M742 206q0 -107 -40 -156.5t-125 -49.5h-369q-82 0 -121 46q-42 50 -42 160v289q0 206 163 206h369q84 0 123 -46q42 -49 42 -160v-289zM495 161v379q0 45 -48 45h-107q-49 0 -49 -45v-379q0 -45 49 -45h107q48 0 48 45zM596 729h-149l-56 82l-56 -82h-149l122 162h167z
" />
    <glyph glyph-name="Otilde" unicode="&#xd5;" horiz-adv-x="788" 
d="M742 206q0 -107 -40 -156.5t-125 -49.5h-369q-82 0 -121 46q-42 50 -42 160v289q0 206 163 206h369q84 0 123 -46q42 -49 42 -160v-289zM495 161v379q0 45 -48 45h-107q-49 0 -49 -45v-379q0 -45 49 -45h107q48 0 48 45zM593 881q-11 -146 -125 -146q-32 0 -86 19
q-30 11 -59 21q-33 0 -45 -47h-80q6 66 40 110t88 45q27 0 81 -20q58 -23 63 -23q35 0 43 41h80z" />
    <glyph glyph-name="Odieresis" unicode="&#xd6;" horiz-adv-x="788" 
d="M742 206q0 -107 -40 -156.5t-125 -49.5h-369q-82 0 -121 46q-42 50 -42 160v289q0 206 163 206h369q84 0 123 -46q42 -49 42 -160v-289zM495 161v379q0 45 -48 45h-107q-49 0 -49 -45v-379q0 -45 49 -45h107q48 0 48 45zM593 733h-171v142h171v-142zM364 733h-172v142
h172v-142z" />
    <glyph glyph-name="Oslash" unicode="&#xd8;" horiz-adv-x="788" 
d="M794 808l-107 -143q55 -46 55 -170v-289q0 -107 -40 -156.5t-125 -49.5l-384 1l-89 -119h-112l111 150q-58 45 -58 174v289q0 206 163 206l393 -1l80 108h113zM493 555q-6 30 -46 30h-107q-49 0 -49 -45v-256zM495 161v245l-200 -268q8 -22 45 -22h107q48 0 48 45z" />
    <glyph glyph-name="Ugrave" unicode="&#xd9;" horiz-adv-x="788" 
d="M760 701q-15 -27 -18 -42q-6 -25 -6 -84v-358q0 -122 -36 -168q-39 -49 -145 -49h-327q-93 0 -135.5 51.5t-42.5 165.5v363q0 64 -1.5 72t-18.5 49h286q-20 -42 -20 -121v-398q0 -66 61 -66h198q51 0 62.5 10.5t11.5 59.5v389q-1 28 -4 51q-6 54 -20 75h155zM573 728
h-137l-174 162h210z" />
    <glyph glyph-name="Uacute" unicode="&#xda;" horiz-adv-x="788" 
d="M760 701q-15 -27 -18 -42q-6 -25 -6 -84v-358q0 -122 -36 -168q-39 -49 -145 -49h-327q-93 0 -135.5 51.5t-42.5 165.5v363q0 64 -1.5 72t-18.5 49h286q-20 -42 -20 -121v-398q0 -66 61 -66h198q51 0 62.5 10.5t11.5 59.5v389q-1 28 -4 51q-6 54 -20 75h155zM625 877
l-174 -162h-138l100 162h212z" />
    <glyph glyph-name="Ucircumflex" unicode="&#xdb;" horiz-adv-x="788" 
d="M760 701q-15 -27 -18 -42q-6 -25 -6 -84v-358q0 -122 -36 -168q-39 -49 -145 -49h-327q-93 0 -135.5 51.5t-42.5 165.5v363q0 64 -1.5 72t-18.5 49h286q-20 -42 -20 -121v-398q0 -66 61 -66h198q51 0 62.5 10.5t11.5 59.5v389q-1 28 -4 51q-6 54 -20 75h155zM650 719
h-149l-56 82l-56 -82h-149l122 162h167z" />
    <glyph glyph-name="Udieresis" unicode="&#xdc;" horiz-adv-x="788" 
d="M760 701q-15 -27 -18 -42q-6 -25 -6 -84v-358q0 -122 -36 -168q-39 -49 -145 -49h-327q-93 0 -135.5 51.5t-42.5 165.5v363q0 64 -1.5 72t-18.5 49h286q-20 -42 -20 -121v-398q0 -66 61 -66h198q51 0 62.5 10.5t11.5 59.5v389q-1 28 -4 51q-6 54 -20 75h155zM642 739
h-171v142h171v-142zM413 739h-172v142h172v-142z" />
    <glyph glyph-name="Yacute" unicode="&#xdd;" horiz-adv-x="751" 
d="M770 701q-40 -36 -48 -45q-15 -18 -38 -58l-194 -338v-140q0 -58 0 -52q2 -27 20 -68h-287q14 25 18 65q2 28 3 55v154l-236 392q-8 13 -30 35h332q-5 -39 3 -53l139 -238l110 193q17 30 20 49q2 24 5 49h183zM630 893l-174 -162h-138l100 162h212z" />
    <glyph glyph-name="Thorn" unicode="&#xde;" horiz-adv-x="751" 
d="M721 311q0 -96 -38 -133.5t-126 -37.5h-256v-20q0 -58 0 -52q2 -27 20 -68h-286q14 28 17 55q2 14 2 65v460q0 61 -2 73.5t-17 47.5h286q-12 -34 -20 -83v-27h256q85 0 123 -35q41 -39 41 -136v-109zM474 316v99q0 36 -7.5 48t-36.5 12h-129v-219h129q29 0 36.5 13
t7.5 47z" />
    <glyph glyph-name="germandbls" unicode="&#xdf;" horiz-adv-x="751" 
d="M707 152q0 -81 -30 -114q-34 -38 -127 -38h-197v122q28 -19 81 -21q19 -1 26.5 7t7.5 38v201q0 54 -42 54h-79v101h60q44 0 44 50q0 19 -9.5 33.5t-25.5 14.5h-68q-21 0 -27 -4q-10 -7 -10 -31v-565h-258q19 74 19 151v263h-70v101h70q-2 11 -2 26q0 59 28 99
q42 61 140 61h292q71 0 98.5 -20t27.5 -78v-49q0 -47 -10 -58q-14 -16 -80 -33q82 0 110 -30q31 -33 31 -132v-149z" />
    <glyph glyph-name="agrave" unicode="&#xe0;" 
d="M689 0h-238l-12 57q-11 -33 -27 -43q-20 -14 -72 -14h-171q-75 0 -105.5 34.5t-30.5 120.5v38q0 84 29.5 119.5t106.5 35.5h218q19 0 30.5 10.5t11.5 24.5q0 31 -42 31h-237q-52 0 -96 -22l17 123h435q87 0 123 -43.5t36 -150.5v-225q0 -39 3 -54q5 -23 21 -42zM427 174
v73h-106q-51 0 -51 -43v-59q0 -27 11.5 -35.5t39.5 -8.5h55q38 0 46 14q5 10 5 59zM478 570h-137l-174 162h210z" />
    <glyph glyph-name="aacute" unicode="&#xe1;" 
d="M689 0h-238l-12 57q-11 -33 -27 -43q-20 -14 -72 -14h-171q-75 0 -105.5 34.5t-30.5 120.5v38q0 84 29.5 119.5t106.5 35.5h218q19 0 30.5 10.5t11.5 24.5q0 31 -42 31h-237q-52 0 -96 -22l17 123h435q87 0 123 -43.5t36 -150.5v-225q0 -39 3 -54q5 -23 21 -42zM427 174
v73h-106q-51 0 -51 -43v-59q0 -27 11.5 -35.5t39.5 -8.5h55q38 0 46 14q5 10 5 59zM588 720l-174 -162h-138l100 162h212z" />
    <glyph glyph-name="acircumflex" unicode="&#xe2;" 
d="M689 0h-238l-12 57q-11 -33 -27 -43q-20 -14 -72 -14h-171q-75 0 -105.5 34.5t-30.5 120.5v38q0 84 29.5 119.5t106.5 35.5h218q19 0 30.5 10.5t11.5 24.5q0 31 -42 31h-237q-52 0 -96 -22l17 123h435q87 0 123 -43.5t36 -150.5v-225q0 -39 3 -54q5 -23 21 -42zM427 174
v73h-106q-51 0 -51 -43v-59q0 -27 11.5 -35.5t39.5 -8.5h55q38 0 46 14q5 10 5 59zM555 558h-149l-56 82l-56 -82h-149l122 162h167z" />
    <glyph glyph-name="atilde" unicode="&#xe3;" 
d="M689 0h-238l-12 57q-11 -33 -27 -43q-20 -14 -72 -14h-171q-75 0 -105.5 34.5t-30.5 120.5v38q0 84 29.5 119.5t106.5 35.5h218q19 0 30.5 10.5t11.5 24.5q0 31 -42 31h-237q-52 0 -96 -22l17 123h435q87 0 123 -43.5t36 -150.5v-225q0 -39 3 -54q5 -23 21 -42zM427 174
v73h-106q-51 0 -51 -43v-59q0 -27 11.5 -35.5t39.5 -8.5h55q38 0 46 14q5 10 5 59zM546 712q-11 -146 -125 -146q-32 0 -86 19q-30 11 -59 21q-33 0 -45 -47h-80q6 66 40 110t88 45q27 0 81 -20q58 -23 63 -23q35 0 43 41h80z" />
    <glyph glyph-name="adieresis" unicode="&#xe4;" 
d="M689 0h-238l-12 57q-11 -33 -27 -43q-20 -14 -72 -14h-171q-75 0 -105.5 34.5t-30.5 120.5v38q0 84 29.5 119.5t106.5 35.5h218q19 0 30.5 10.5t11.5 24.5q0 31 -42 31h-237q-52 0 -96 -22l17 123h435q87 0 123 -43.5t36 -150.5v-225q0 -39 3 -54q5 -23 21 -42zM427 174
v73h-106q-51 0 -51 -43v-59q0 -27 11.5 -35.5t39.5 -8.5h55q38 0 46 14q5 10 5 59zM542 566h-171v142h171v-142zM313 566h-172v142h172v-142z" />
    <glyph glyph-name="aring" unicode="&#xe5;" 
d="M689 0h-238l-12 57q-11 -33 -27 -43q-20 -14 -72 -14h-171q-75 0 -105.5 34.5t-30.5 120.5v38q0 84 29.5 119.5t106.5 35.5h218q19 0 30.5 10.5t11.5 24.5q0 31 -42 31h-237q-52 0 -96 -22l17 123h435q87 0 123 -43.5t36 -150.5v-225q0 -39 3 -54q5 -23 21 -42zM427 174
v73h-106q-51 0 -51 -43v-59q0 -27 11.5 -35.5t39.5 -8.5h55q38 0 46 14q5 10 5 59zM423 657q0 -38 -24.5 -66t-60.5 -28q-34 0 -59.5 26.5t-25.5 67.5q0 40 24 67t61 27q34 0 59.5 -27.5t25.5 -66.5zM374 657q0 41 -37 41q-16 0 -27 -17q-9 -13 -9 -24q0 -14 10 -27t25 -14
q15 0 26.5 11.5t11.5 29.5z" />
    <glyph glyph-name="ae" unicode="&#xe6;" horiz-adv-x="1013" 
d="M977 201h-352v-48q0 -52 54 -52h184q69 0 108 22l-17 -123h-437q-71 0 -99 55q-12 -33 -25 -43q-16 -12 -53 -12h-171q-75 0 -105.5 34.5t-30.5 120.5v38q0 84 29.5 119.5t106.5 35.5h184q18 0 30 11.5t12 25.5q0 29 -42 29h-203q-52 0 -96 -22l17 123h757
q149 0 149 -160v-154zM752 302v70q0 42 -35 42h-58q-34 0 -34 -42v-70h127zM393 174v73h-91q-44 0 -44 -43v-59q0 -44 44 -44h48q27 0 35 10.5t8 62.5z" />
    <glyph glyph-name="ccedilla" unicode="&#xe7;" horiz-adv-x="601" 
d="M573 387q-25 27 -112 27h-136q-55 0 -55 -53v-208q0 -52 55 -52h117q82 0 125 25l-16 -126h-206l-39 -70l31 5q51 -3 71 -14q33 -18 33 -70q0 -48 -38 -76t-99 -30q-19 -1 -125 32l20 50q37 -11 88 -22q50 -1 52 42q1 36 -48 36l-36 -10l-24 26l56 101h-105
q-149 0 -149 160v195q0 160 149 160h371z" />
    <glyph glyph-name="egrave" unicode="&#xe8;" 
d="M669 201h-399v-48q0 -52 55 -52h230q68 0 107 22l-17 -123h-476q-75 0 -105.5 34.5t-30.5 120.5v204q0 86 29.5 121t106.5 35h363q75 0 106 -34t31 -122v-158zM438 302v70q0 42 -35 42h-98q-35 0 -35 -42v-70h168zM460 562h-137l-174 162h210z" />
    <glyph glyph-name="eacute" unicode="&#xe9;" 
d="M669 201h-399v-48q0 -52 55 -52h230q68 0 107 22l-17 -123h-476q-75 0 -105.5 34.5t-30.5 120.5v204q0 86 29.5 121t106.5 35h363q75 0 106 -34t31 -122v-158zM438 302v70q0 42 -35 42h-98q-35 0 -35 -42v-70h168zM540 711l-174 -162h-138l100 162h212z" />
    <glyph glyph-name="ecircumflex" unicode="&#xea;" 
d="M669 201h-399v-48q0 -52 55 -52h230q68 0 107 22l-17 -123h-476q-75 0 -105.5 34.5t-30.5 120.5v204q0 86 29.5 121t106.5 35h363q75 0 106 -34t31 -122v-158zM438 302v70q0 42 -35 42h-98q-35 0 -35 -42v-70h168zM540 553h-149l-56 82l-56 -82h-149l122 162h167z" />
    <glyph glyph-name="edieresis" unicode="&#xeb;" 
d="M669 201h-399v-48q0 -52 55 -52h230q68 0 107 22l-17 -123h-476q-75 0 -105.5 34.5t-30.5 120.5v204q0 86 29.5 121t106.5 35h363q75 0 106 -34t31 -122v-158zM438 302v70q0 42 -35 42h-98q-35 0 -35 -42v-70h168zM537 569h-171v142h171v-142zM308 569h-172v142h172v-142
z" />
    <glyph glyph-name="igrave" unicode="&#xec;" horiz-adv-x="357" 
d="M323 0h-290q11 20 18 46.5t7 71.5v278q0 50 -5 67q-3 23 -20 52h264v-397q0 -49 6 -69q3 -21 20 -49zM280 561h-137l-174 162h210z" />
    <glyph glyph-name="iacute" unicode="&#xed;" horiz-adv-x="357" 
d="M323 0h-290q11 20 18 46.5t7 71.5v278q0 50 -5 67q-3 23 -20 52h264v-397q0 -49 6 -69q3 -21 20 -49zM388 716l-174 -162h-138l100 162h212z" />
    <glyph glyph-name="icircumflex" unicode="&#xee;" horiz-adv-x="357" 
d="M323 0h-290q11 20 18 46.5t7 71.5v278q0 50 -5 67q-3 23 -20 52h264v-397q0 -49 6 -69q3 -21 20 -49zM363 556h-149l-56 82l-56 -82h-149l122 162h167z" />
    <glyph glyph-name="idieresis" unicode="&#xef;" horiz-adv-x="357" 
d="M323 0h-290q11 20 18 46.5t7 71.5v278q0 50 -5 67q-3 23 -20 52h264v-397q0 -49 6 -69q3 -21 20 -49zM364 568h-171v142h171v-142zM135 568h-172v142h172v-142z" />
    <glyph glyph-name="eth" unicode="&#xf0;" 
d="M678 125q0 -67 -27 -94q-31 -31 -109 -31h-373q-76 0 -106 27t-30 98v164q0 68 30 96.5t106 28.5h232q23 0 40 -6v63q0 49 -42 56l-110 -66l-84 62l81 49l-123 48l130 81l123 -53l88 53l101 -51l-81 -48l111 -48q43 -14 43 -79v-350zM441 115v184q0 19 -5 26q-8 8 -32 8
h-99q-35 0 -35 -34v-184q0 -34 35 -34h99q37 0 37 34z" />
    <glyph glyph-name="ntilde" unicode="&#xf1;" horiz-adv-x="731" 
d="M712 0h-291q9 12 17 24q10 22 10 94v253q0 24 -8 33.5t-32 9.5h-87q-21 0 -28 -6q-11 -9 -11 -37v-253q0 -49 4 -68.5t22 -49.5h-291q8 10 17 20q10 21 10 98v278q0 69 -27 119h246l7 -54q24 54 65 54h192q158 0 158 -188v-209q0 -49 4.5 -68.5t22.5 -49.5zM564 699
q-11 -146 -125 -146q-32 0 -86 19q-30 11 -59 21q-33 0 -45 -47h-80q6 66 40 110t88 45q27 0 81 -20q58 -23 63 -23q35 0 43 41h80z" />
    <glyph glyph-name="ograve" unicode="&#xf2;" 
d="M678 155q0 -83 -27 -117q-31 -38 -109 -38h-373q-75 0 -105.5 34.5t-30.5 120.5v204q0 86 29.5 121t106.5 35h373q75 0 105.5 -34t30.5 -122v-204zM441 142v230q0 24 -5 32q-8 10 -32 10h-99q-21 0 -25 -2q-10 -7 -10 -40v-230q0 -41 35 -41h99q37 0 37 41zM465 559h-137
l-174 162h210z" />
    <glyph glyph-name="oacute" unicode="&#xf3;" 
d="M678 155q0 -83 -27 -117q-31 -38 -109 -38h-373q-75 0 -105.5 34.5t-30.5 120.5v204q0 86 29.5 121t106.5 35h373q75 0 105.5 -34t30.5 -122v-204zM441 142v230q0 24 -5 32q-8 10 -32 10h-99q-21 0 -25 -2q-10 -7 -10 -40v-230q0 -41 35 -41h99q37 0 37 41zM561 717
l-174 -162h-138l100 162h212z" />
    <glyph glyph-name="ocircumflex" unicode="&#xf4;" 
d="M678 155q0 -83 -27 -117q-31 -38 -109 -38h-373q-75 0 -105.5 34.5t-30.5 120.5v204q0 86 29.5 121t106.5 35h373q75 0 105.5 -34t30.5 -122v-204zM441 142v230q0 24 -5 32q-8 10 -32 10h-99q-21 0 -25 -2q-10 -7 -10 -40v-230q0 -41 35 -41h99q37 0 37 41zM549 547h-149
l-56 82l-56 -82h-149l122 162h167z" />
    <glyph glyph-name="otilde" unicode="&#xf5;" 
d="M678 155q0 -83 -27 -117q-31 -38 -109 -38h-373q-75 0 -105.5 34.5t-30.5 120.5v204q0 86 29.5 121t106.5 35h373q75 0 105.5 -34t30.5 -122v-204zM441 142v230q0 24 -5 32q-8 10 -32 10h-99q-21 0 -25 -2q-10 -7 -10 -40v-230q0 -41 35 -41h99q37 0 37 41zM537 702
q-11 -146 -125 -146q-32 0 -86 19q-30 11 -59 21q-33 0 -45 -47h-80q6 66 40 110t88 45q27 0 81 -20q58 -23 63 -23q35 0 43 41h80z" />
    <glyph glyph-name="odieresis" unicode="&#xf6;" 
d="M678 155q0 -83 -27 -117q-31 -38 -109 -38h-373q-75 0 -105.5 34.5t-30.5 120.5v204q0 86 29.5 121t106.5 35h373q75 0 105.5 -34t30.5 -122v-204zM441 142v230q0 24 -5 32q-8 10 -32 10h-99q-21 0 -25 -2q-10 -7 -10 -40v-230q0 -41 35 -41h99q37 0 37 41zM553 578h-171
v142h171v-142zM324 578h-172v142h172v-142z" />
    <glyph glyph-name="divide" unicode="&#xf7;" horiz-adv-x="608" 
d="M386 468q0 -33 -22 -59q-24 -29 -59 -30q-33 -1 -59 25.5t-26 63.5q0 38 23.5 64t60.5 26q33 0 57.5 -25.5t24.5 -64.5zM541 199h-476v116h476v-116zM386 47q1 -33 -23.5 -61.5t-57.5 -29.5q-35 -1 -59.5 25.5t-25.5 65.5q-1 36 24 62.5t60 26.5q30 0 55.5 -26t26.5 -63z
" />
    <glyph glyph-name="oslash" unicode="&#xf8;" 
d="M691 623l-88 -116q41 -13 58 -45.5t17 -102.5v-204q0 -82 -27 -116q-30 -39 -109 -39h-324l-86 -115h-112l93 122q-43 9 -61.5 44t-18.5 104v204q0 86 29.5 121t106.5 35h332l82 108h108zM422 412l-18 2h-99q-17 0 -21 -2q-14 -8 -14 -40v-158zM441 142v150l-145 -190
l9 -1h99q37 0 37 41z" />
    <glyph glyph-name="ugrave" unicode="&#xf9;" horiz-adv-x="731" 
d="M712 0h-247l-7 54q-21 -54 -63 -54h-193q-158 0 -158 187v209q0 69 -27 119h265v-372q0 -42 39 -42h87q40 0 40 42v253q0 64 -27 119h264v-397q0 -49 4.5 -68.5t22.5 -49.5zM451 559h-137l-174 162h210z" />
    <glyph glyph-name="uacute" unicode="&#xfa;" horiz-adv-x="731" 
d="M712 0h-247l-7 54q-21 -54 -63 -54h-193q-158 0 -158 187v209q0 69 -27 119h265v-372q0 -42 39 -42h87q40 0 40 42v253q0 64 -27 119h264v-397q0 -49 4.5 -68.5t22.5 -49.5zM590 718l-174 -162h-138l100 162h212z" />
    <glyph glyph-name="ucircumflex" unicode="&#xfb;" horiz-adv-x="731" 
d="M712 0h-247l-7 54q-21 -54 -63 -54h-193q-158 0 -158 187v209q0 69 -27 119h265v-372q0 -42 39 -42h87q40 0 40 42v253q0 64 -27 119h264v-397q0 -49 4.5 -68.5t22.5 -49.5zM552 556h-149l-56 82l-56 -82h-149l122 162h167z" />
    <glyph glyph-name="udieresis" unicode="&#xfc;" horiz-adv-x="731" 
d="M712 0h-247l-7 54q-21 -54 -63 -54h-193q-158 0 -158 187v209q0 69 -27 119h265v-372q0 -42 39 -42h87q40 0 40 42v253q0 64 -27 119h264v-397q0 -49 4.5 -68.5t22.5 -49.5zM566 570h-171v142h171v-142zM337 570h-172v142h172v-142z" />
    <glyph glyph-name="thorn" unicode="&#xfe;" 
d="M678 160q0 -160 -149 -160h-186q-48 0 -63 50l-2 -149q-1 -59 21 -96h-258v799q0 69 -21 97h258v-214q21 28 50 28h201q149 0 149 -160v-195zM441 140v234q0 40 -34 40h-95q-34 0 -34 -40v-234q0 -39 34 -39h95q34 0 34 39z" />
    <glyph glyph-name="ydieresis" unicode="&#xff;" horiz-adv-x="731" 
d="M675 -48q0 -147 -131 -147h-469l-18 126q26 -15 51.5 -18.5t51.5 -6.5h229q49 0 49 37v107q-12 -28 -23 -37q-17 -13 -57 -13h-156q-158 0 -158 187v209q0 69 -27 119h265v-372q0 -42 39 -42h88q14 0 21.5 5.5t7.5 38.5v272q0 46 -3 62t-17 36h257v-563zM552 571h-171
v142h171v-142zM323 571h-172v142h172v-142z" />
    <glyph glyph-name="dotlessi" unicode="&#x131;" horiz-adv-x="357" 
d="M323 0h-290q11 20 18 46.5t7 71.5v278q0 50 -5 67q-3 23 -20 52h264v-397q0 -49 6 -69q3 -21 20 -49z" />
    <glyph glyph-name="Lslash" unicode="&#x141;" horiz-adv-x="619" 
d="M623 139l-21 -139h-557q11 27 15 67q2 26 4 53v124l-70 -34v99l70 34v237q0 47 -2 64q-3 21 -17 57h287q-21 -40 -21 -121v-118l150 72v-98l-150 -72v-248h206q76 0 106 23z" />
    <glyph glyph-name="lslash" unicode="&#x142;" horiz-adv-x="357" 
d="M357 390l-60 -26v-246q0 -49 4 -68.5t22 -49.5h-290q25 42 25 118v140l-60 -26v99l60 26v226q0 48 -4 68.5t-21 49.5h264v-239l60 26v-98z" />
    <glyph glyph-name="OE" unicode="&#x152;" horiz-adv-x="1013" 
d="M1011 135l-23 -135h-756q-187 0 -187 192v317q0 192 187 192h746l21 -135l-113 19h-167v-165h141q53 0 111 19v-153q-63 18 -111 18h-141v-188h181q55 0 60 1q9 1 51 18zM472 116v469h-140q-15 0 -23 -3q-18 -7 -18 -50v-363q0 -53 41 -53h140z" />
    <glyph glyph-name="oe" unicode="&#x153;" horiz-adv-x="1013" 
d="M981 201h-352v-48q0 -52 54 -52h183q45 0 63.5 4t44.5 18l-17 -123h-788q-75 0 -105.5 34.5t-30.5 120.5v204q0 86 29.5 121t106.5 35h663q149 0 149 -160v-154zM756 302v70q0 42 -35 42h-58q-14 0 -24 -13t-10 -29v-70h127zM397 142v230q0 42 -35 42h-63q-20 0 -25 -3
q-10 -8 -10 -39v-230q0 -41 35 -41h63q35 0 35 41z" />
    <glyph glyph-name="Scaron" unicode="&#x160;" 
d="M666 172q0 -80 -24 -117q-35 -55 -130 -55h-445l-20 142q13 -9 26 -17q20 -9 71 -9h237q47 0 47 31v48q0 21 -13 27q-9 4 -34 4h-200q-78 0 -107 31t-29 121v156q0 167 136 167h458l20 -139q-51 23 -100 23h-229q-29 0 -35 -3q-12 -5 -12 -28v-39q0 -19 8 -25t39 -6h175
q81 0 121 -33t40 -108v-171zM606 897l-121 -162h-167l-122 162h149l56 -82l56 82h149z" />
    <glyph glyph-name="scaron" unicode="&#x161;" horiz-adv-x="675" 
d="M632 136q0 -59 -33 -95q-37 -41 -109 -41h-442l-18 124q33 -18 57 -23q30 -7 90 -7h201q32 0 32 28v10q0 28 -32 28h-207q-70 0 -99 30t-29 94v99q0 59 40 95.5t110 36.5h410l20 -128q-24 33 -142 33h-184q-33 0 -33 -18v-22q0 -19 33 -19h206q129 0 129 -122v-103z
M571 739l-121 -162h-167l-122 162h149l56 -82l56 82h149z" />
    <glyph glyph-name="Ydieresis" unicode="&#x178;" horiz-adv-x="751" 
d="M770 701q-40 -36 -48 -45q-15 -18 -38 -58l-194 -338v-140q0 -58 0 -52q2 -27 20 -68h-287q14 25 18 65q2 28 3 55v154l-236 392q-8 13 -30 35h332q-5 -39 3 -53l139 -238l110 193q17 30 20 49q2 24 5 49h183zM648 730h-172v141h172v-141zM418 730h-173v141h173v-141z
" />
    <glyph glyph-name="Zcaron" unicode="&#x17d;" horiz-adv-x="694" 
d="M686 701l-333 -585h197q65 0 96 14l-16 -130h-625l333 585h-195q-61 0 -93 -22l17 138h619zM602 898l-121 -162h-167l-122 162h149l56 -82l56 82h149z" />
    <glyph glyph-name="zcaron" unicode="&#x17e;" horiz-adv-x="675" 
d="M662 130l-15 -130h-631l283 414h-148q-62 0 -70 -1q-11 -3 -58 -26l17 128h607l-275 -414h169q69 0 121 29zM564 740l-121 -162h-167l-122 162h149l56 -82l56 82h149z" />
    <glyph glyph-name="florin" unicode="&#x192;" horiz-adv-x="563" 
d="M559 701l-7 -139q-47 23 -60 23q-51 0 -67 -63l-21 -84h122l-24 -94h-116l-89 -362q-28 -114 -62.5 -145.5t-129.5 -31.5h-163l6 146q21 -30 51 -30q45 0 66 84l83 339h-110l22 94h109l40 155q15 59 41 81q30 27 94 27h215z" />
    <glyph glyph-name="circumflex" unicode="&#x2c6;" horiz-adv-x="350" 
d="M383 580h-149l-56 82l-56 -82h-149l122 162h167z" />
    <glyph glyph-name="caron" unicode="&#x2c7;" horiz-adv-x="304" 
d="M373 742l-121 -162h-167l-122 162h149l56 -82l56 82h149z" />
    <glyph glyph-name="breve" unicode="&#x2d8;" horiz-adv-x="304" 
d="M331 748q0 -85 -56 -129q-50 -39 -138 -39q-77 0 -124 44t-48 124h79q5 -67 107 -69q81 -1 101 69h79z" />
    <glyph glyph-name="ring" unicode="&#x2da;" horiz-adv-x="304" 
d="M265 701q0 -50 -33 -86.5t-81 -36.5q-45 0 -78.5 35.5t-34.5 87.5q-1 50 32.5 86t80.5 36q46 0 80 -36t34 -86zM200 701q2 51 -50 53q-20 1 -34 -15.5t-14 -37.5q0 -20 11 -35q14 -18 36 -19q19 -1 34.5 14t16.5 40z" />
    <glyph glyph-name="tilde" unicode="&#x2dc;" horiz-adv-x="350" 
d="M379 733q-11 -146 -125 -146q-32 0 -86 19q-30 11 -59 21q-33 0 -45 -47h-80q6 66 40 110t88 45q27 0 81 -20q58 -23 63 -23q35 0 43 41h80z" />
    <glyph glyph-name="endash" unicode="&#x2013;" horiz-adv-x="507" 
d="M495 184h-485v148h485v-148z" />
    <glyph glyph-name="emdash" unicode="&#x2014;" horiz-adv-x="990" 
d="M970 184h-960v148h960v-148z" />
    <glyph glyph-name="quoteleft" unicode="&#x2018;" horiz-adv-x="357" 
d="M297 379h-239v167l133 162h85l-69 -145h90v-184z" />
    <glyph glyph-name="quoteright" unicode="&#x2019;" horiz-adv-x="357" 
d="M297 533l-133 -163h-85l70 147h-91v184h239v-168z" />
    <glyph glyph-name="quotesinglbase" unicode="&#x201a;" horiz-adv-x="357" 
d="M297 16l-133 -163h-85l70 147h-91v184h239v-168z" />
    <glyph glyph-name="quotedblleft" unicode="&#x201c;" horiz-adv-x="655" 
d="M596 379h-239v167l133 164h85l-69 -147h90v-184zM296 379h-239v167l133 164h85l-69 -147h90v-184z" />
    <glyph glyph-name="quotedblright" unicode="&#x201d;" horiz-adv-x="655" 
d="M597 533l-133 -163h-86l71 147h-91v184h239v-168zM297 533l-133 -163h-85l70 147h-91v184h239v-168z" />
    <glyph glyph-name="quotedblbase" unicode="&#x201e;" horiz-adv-x="655" 
d="M597 16l-133 -163h-86l71 147h-91v184h239v-168zM297 16l-133 -163h-85l70 147h-91v184h239v-168z" />
    <glyph glyph-name="dagger" unicode="&#x2020;" horiz-adv-x="675" 
d="M621 331h-174v-526h-221v526h-175v127h175v243h221v-243h174v-127z" />
    <glyph glyph-name="daggerdbl" unicode="&#x2021;" horiz-adv-x="675" 
d="M621 24h-174v-219h-221v219h-175v127h175v237h-175v127h175v186h221v-186h174v-127h-174v-237h174v-127z" />
    <glyph glyph-name="bullet" unicode="&#x2022;" horiz-adv-x="507" 
d="M414 350q0 -67 -47.5 -114.5t-114.5 -47.5t-114 47.5t-47 114.5t47 114.5t114 47.5t114.5 -47.5t47.5 -114.5z" />
    <glyph glyph-name="ellipsis" unicode="&#x2026;" horiz-adv-x="1013" 
d="M960 0h-238v184h238v-184zM624 0h-238v184h238v-184zM288 0h-238v184h238v-184z" />
    <glyph glyph-name="perthousand" unicode="&#x2030;" horiz-adv-x="1182" 
d="M663 701l-369 -701h-130l369 701h130zM332 434q0 -51 -13 -70q-16 -25 -67 -25h-142q-44 0 -61.5 20.5t-17.5 74.5v170q0 52 15.5 73.5t63.5 21.5h142q45 0 62.5 -20.5t17.5 -74.5v-170zM208 438v161q0 25 -12 25h-31q-12 0 -12 -25v-161q0 -24 12 -24h31q12 0 12 24z
M796 94q0 -51 -13 -70q-16 -25 -67 -25h-142q-44 0 -61.5 20.5t-17.5 74.5v170q0 52 15.5 73.5t63.5 21.5h142q45 0 62.5 -20.5t17.5 -74.5v-170zM672 98v161q0 25 -12 25h-31q-12 0 -12 -25v-161q0 -24 12 -24h31q12 0 12 24zM1151 94q0 -51 -13 -70q-16 -25 -67 -25h-142
q-44 0 -61.5 20.5t-17.5 74.5v170q0 52 15.5 73.5t63.5 21.5h142q45 0 62.5 -20.5t17.5 -74.5v-170zM1027 98v161q0 25 -12 25h-31q-12 0 -12 -25v-161q0 -24 12 -24h31q12 0 12 24z" />
    <glyph glyph-name="guilsinglleft" unicode="&#x2039;" horiz-adv-x="357" 
d="M310 59h-166l-98 193l98 204h166l-98 -204z" />
    <glyph glyph-name="guilsinglright" unicode="&#x203a;" horiz-adv-x="357" 
d="M310 252l-98 -193h-166l98 193l-98 204h166z" />
    <glyph glyph-name="fraction" unicode="&#x2044;" horiz-adv-x="169" 
d="M338 701l-365 -701h-141l363 701h143z" />
    <glyph glyph-name="trademark" unicode="&#x2122;" horiz-adv-x="1013" 
d="M985 280h-172q6 14 12 73v258l-109 -331h-102l-104 331l-2 -255q0 -52 15 -76h-93q15 21 15 76v269q0 52 -15 76h203l74 -239l79 239h199q-13 -30 -13 -72v-276q0 -49 13 -73zM405 614q-44 18 -54 18h-68v-279q0 -15 12 -73h-172q13 23 13 73v279h-69q-11 0 -54 -18
l13 88h368z" />
    <glyph glyph-name="fi" unicode="&#xf001;" horiz-adv-x="825" 
d="M762 565h-234v136h234v-136zM791 0h-291q8 11 16 21q10 22 10 97v278q0 66 -26 119h264v-397q0 -52 3 -68q5 -21 24 -50zM513 581q-39 19 -86 19h-54q-38 0 -38 -35v-50h145v-101h-145v-296q0 -65 0 -63q2 -12 25 -55h-291q9 13 17 26q10 22 10 92v296h-100v101h100v48
q0 62 32 98q35 40 103 40h267z" />
    <glyph glyph-name="fl" unicode="&#xf002;" horiz-adv-x="825" 
d="M791 0h-291q8 11 16 21q10 22 10 97v465q0 66 -26 118h264v-583q0 -52 3 -68q5 -21 24 -50zM487 581q-68 19 -86 19h-28q-38 0 -38 -35v-50h145v-101h-145v-296q0 -65 0 -63q2 -12 25 -55h-291q9 13 17 26q10 22 10 92v296h-100v101h100v48q0 62 32 98q35 40 103 40h240z
" />
    </font>
</defs>
</svg>
